<svg width="533" height="286" xmlns="http://www.w3.org/2000/svg">
 <!-- Created with Method Draw - http://github.com/duopixel/Method-Draw/ -->
 <g>
  <title>background</title>
  <rect fill="#fff" id="canvas_background" height="288" width="535" y="-1" x="-1"/>
  <g display="none" overflow="visible" y="0" x="0" height="100%" width="100%" id="canvasGrid">
   <rect fill="url(#gridpattern)" stroke-width="0" y="0" x="0" height="100%" width="100%"/>
  </g>
 </g>
 <g>
  <title>Layer 1</title>
  <rect stroke="#000" id="svg_1" height="287.339611" width="537.293658" y="0.183507" x="-0.206501" stroke-width="1.5" fill="#1d1b1b"/>
  <path stroke="#000" id="svg_6" d="m253.302699,101.834693c-23.054392,0 -41.743183,17.456566 -41.743183,38.990891c0,21.534325 18.688791,38.990891 41.743183,38.990891c23.054392,0 41.743183,-17.456566 41.743183,-38.990891c0,-21.534325 -18.688791,-38.990891 -41.743183,-38.990891zm9.070109,58.491701c-0.226896,0.171695 -0.525595,0.348756 -0.301571,0.555326c0.224024,0.209253 -0.25849,0.351438 -0.25849,0.456065s0.298699,0.659953 0.149349,0.901399c-0.149349,0.246812 -0.261362,0.59825 -0.373374,0.807504c-0.112012,0.206571 -0.376246,0.415824 -0.298699,0.729704c0.071803,0.311197 -0.298699,0.206571 -0.298699,0.520451c0,0.311197 0.333164,0.174378 0.25849,0.558009c-0.071803,0.386314 -0.25849,0.490941 -0.25849,0.76458c0,0.279005 0.183815,0.662636 0.183815,0.767263s-0.183815,0.456065 -0.445176,0.729704c-0.264234,0.279005 -0.445176,0.456065 -0.413583,0.625078c0.040209,0.174378 0.298699,0.386314 0.261362,0.493623c-0.037337,0.099261 -0.370502,0.4507 -0.333164,0.694829c0.040209,0.241446 0.370502,0.142185 0.445176,0.311197c0.074675,0.174378 -0.445176,0.316563 -0.224024,0.490941c0.224024,0.171695 0.525595,0.13682 0.448048,0.558009c-0.05457,0.300466 0.183815,0.437286 0.361885,0.531182c-2.559046,0.592885 -5.221488,0.944323 -7.975837,0.944323c-18.266592,0 -33.123994,-13.877795 -33.123994,-30.939999c0,-5.561313 1.599763,-10.771187 4.359856,-15.283549c0.226896,-0.112675 0.393478,-0.185109 0.49113,-0.16633c0.186687,0.034876 0.226896,0.279005 0.525595,0.348756c0.298699,0.069751 0.560061,-0.209253 0.746747,-0.31388c0.183815,-0.104627 0.333164,-0.523134 0.146477,-0.488258c-0.186687,0.034876 -0.672073,0 -0.672073,0s0.525595,-0.279005 0.525595,-0.453382s0.071803,-0.453382 0.370502,-0.558009c0.295827,-0.107309 0.295827,-0.037558 0.10914,0.380949c-0.186687,0.418507 0.376246,0.244129 0.597398,0.069751s0.373374,-0.034876 0.781213,-0.279005c0.410711,-0.244129 0.410711,-0.383631 0.634735,-0.383631c0.224024,0 0.634735,0.383631 0.85876,0.244129c0.221152,-0.139502 0.85876,0.174378 1.232133,0.174378c0.370502,0 1.565298,0.453382 1.792194,0.453382c0.224024,0 0.896097,0.241446 0.933434,0.694829c0.037337,0.453382 0.25849,0.418507 0.482514,0.418507s0.746747,0.174378 0.746747,0.348756c0,0.174378 -0.149349,0.871889 0.224024,1.046267c0.370502,0.171695 0.70941,0.453382 0.85876,0.383631c0.149349,-0.069751 0,-0.625078 -0.183815,-0.697511c-0.186687,-0.069751 -0.077547,-0.31388 -0.149349,-0.453382c-0.074675,-0.13682 0.224024,-0.13682 0.336036,0.104627c0.112012,0.244129 0.410711,0.697511 0.597398,0.697511c0.183815,0 0.597398,0.418507 0.482514,0.662636c-0.112012,0.244129 0.112012,0.592885 0.448048,0.592885c0.333164,0 0.746747,0.488258 0.896097,0.523134c0.149349,0.034876 0.336036,0.209253 0.336036,0.31388c0,0.107309 0.186687,0.697511 0.186687,0.94164c0,0.241446 -0.114884,1.217962 -0.152222,1.601594s0.298699,1.046267 0.672073,1.395023c0.370502,0.348756 0.706538,1.011392 0.930562,1.150894c0.226896,0.139502 0.373374,0.523134 0.70941,0.488258c0.336036,-0.034876 0.560061,0.209253 0.85876,0.697511c0.298699,0.488258 0.597398,1.287713 0.821422,1.357465c0.224024,0.069751 0.597398,0.31388 0.407839,0.488258c-0.183815,0.171695 -0.482514,0.558009 -0.146477,0.558009c0.336036,0 0.448048,-0.174378 0.70941,0.142185c0.25849,0.311197 0.597398,0.485575 0.557188,0.697511c-0.037337,0.206571 0.298699,0.276322 0.448048,0.311197c0.149349,0.034876 0.485386,0.662636 0.821422,0.383631c0.336036,-0.279005 -0.445176,-0.694829 -0.672073,-0.874572c-0.224024,-0.171695 0,-0.555326 -0.522723,-0.938958c-0.522723,-0.383631 -0.448048,-0.662636 -0.821422,-0.94164c-0.373374,-0.279005 -0.669201,-0.523134 -0.298699,-0.767263c0.373374,-0.244129 0.410711,0.244129 0.560061,0.558009c0.149349,0.311197 0.930562,0.94164 1.266599,1.217962c0.336036,0.279005 0.936306,1.255521 1.120121,1.255521s0.70941,0.558009 0.70941,0.558009s0.295827,0.4507 0.183815,0.590202c-0.112012,0.139502 0.152222,0.662636 0.413583,0.802138c0.25849,0.139502 1.306808,0.590202 1.456158,0.662636c0.149349,0.072434 0.445176,0.592885 0.85876,0.592885c0.407839,0 0.70941,0.037558 0.821422,0.142185c0.112012,0.101944 0.445176,0.520451 0.672073,0.279005c0.224024,-0.246812 0.25849,-0.351438 0.597398,-0.351438c0.336036,0 0.482514,0.244129 0.669201,0.418507c0.186687,0.174378 0.70941,0.630443 0.970772,0.595567c0.261362,-0.034876 0.597398,0.279005 0.784085,0.171695s0.485386,0.067068 0.631863,0.139502c0.155094,0.069751 0.672073,0.316563 0.637607,0.729704c-0.037337,0.42119 0.295827,0.523134 0.522723,0.62776c0.224024,0.104627 0.522723,0.348756 0.712282,0.523134c0.183815,0.169012 0.591654,0.206571 0.706538,0.311197c0.112012,0.104627 0.186687,0.31388 0.522723,0.139502c0.333164,-0.171695 0.264234,-0.485575 0.264234,-0.485575s0.370502,-0.069751 0.557188,0.069751c0.183815,0.134137 0.298699,0.590202 0.413583,0.659953c0.10914,0.069751 0.330292,0.592885 0.180943,0.971151c-0.146477,0.388997 -0.10914,0.767263 -0.261362,0.767263c-0.149349,0 -0.333164,0.456065 -0.560061,0.560692c-0.21828,0.104627 -0.81855,0.592885 -0.781213,0.767263c0.037337,0.169012 0.376246,0.692146 0.298699,0.938958c-0.071803,0.244129 -0.557188,0.523134 -0.442304,0.906765c0.10914,0.386314 0.896097,0.490941 0.92769,0.837014c0.040209,0.351438 0.60027,1.118701 0.674945,1.464774c0.071803,0.348756 0.706538,0.729704 0.706538,1.21528c0,0.493623 0.896097,0.804821 1.082784,0.837014c0.180943,0.034876 0.522723,0.351438 0.781213,0.456065s0.485386,0.311197 0.669201,0.592885s0.152222,0.700194 0.152222,0.802138c0,0.104627 -0.112012,1.180404 -0.224024,1.808164c-0.114884,0.630443 0.143605,1.118701 -0.077547,1.295762zm-24.10271,-32.410138c0.112012,0.034876 0.336036,0.244129 0.448048,0.244129c0.114884,0 0.672073,0.418507 0.821422,0.558009c0.152222,0.139502 0.152222,0.523134 -0.037337,0.558009s-0.298699,-0.383631 -0.336036,-0.558009c-0.037337,-0.174378 -0.410711,-0.174378 -0.597398,-0.279005c-0.186687,-0.104627 -0.603142,-0.619712 -0.298699,-0.523134zm48.090536,14.009249c-0.413583,0.488258 -0.373374,0.729704 -0.560061,0.767263c-0.183815,0.034876 0.186687,0.174378 0.25849,0.520451c0.063186,0.300466 -0.186687,0.600933 0.180943,0.877255c-1.395843,12.391559 -10.655512,22.626199 -23.022798,26.255941c-0.020105,-0.02951 -0.05457,-0.067068 -0.060314,-0.091213c-0.077547,-0.209253 -0.077547,-0.625078 0.183815,-0.76458c0.261362,-0.142185 0.896097,-0.625078 1.042574,-0.729704c0.149349,-0.107309 0.373374,-0.592885 0.261362,-0.662636c-0.10914,-0.069751 -0.666328,0 -0.746747,-0.104627c-0.074675,-0.104627 -0.074675,-0.246812 0.298699,-0.488258c0.373374,-0.244129 0.560061,-0.595567 0.70941,-0.697511c0.149349,-0.104627 0.445176,-0.31388 0.560061,-0.560692c0.10914,-0.241446 -0.117756,-0.104627 -0.338908,-0.104627s-0.336036,-0.380949 -0.336036,-0.555326s0.560061,0.069751 0.973644,0.139502c0.410711,0.064386 0.221152,-0.174378 0.183815,-0.380949c-0.037337,-0.209253 0.074675,-0.560692 0.301571,-0.456065c0.21828,0.104627 1.375739,-0.034876 1.525088,-0.069751c0.149349,-0.034876 0.557188,-0.659953 0.706538,-0.837014c0.152222,-0.174378 0.183815,-0.346073 0,-0.4507c-0.186687,-0.107309 -0.410711,-0.493623 -0.482514,-0.592885c-0.074675,-0.109992 -0.112012,-0.73507 -0.037337,-0.91213c0.071803,-0.169012 0,1.011392 0.519851,1.153577c0.525595,0.139502 0.821422,0.209253 1.306808,-0.209253c0.485386,-0.415824 0.855887,-0.697511 0.896097,-0.973833c0.037337,-0.279005 0.149349,-0.560692 0.336036,-0.659953c0.186687,-0.104627 0.298699,0.276322 0.522723,-0.174378c0.224024,-0.456065 0.448048,-0.42119 0.672073,-0.802138c0.221152,-0.386314 -0.373374,-0.871889 0.068931,-1.153577c0.450921,-0.276322 1.235005,-0.625078 1.235005,-0.625078s0.224024,-0.104627 0.672073,-0.209253c0.445176,-0.101944 0.930562,-0.037558 1.079912,-0.241446c0.149349,-0.211936 0.298699,-0.662636 0.522723,-0.906765c0.226896,-0.246812 0.485386,-0.62776 0.373374,-0.802138c-0.112012,-0.174378 0.298699,-0.944323 0.261362,-1.150894c-0.037337,-0.209253 -0.373374,-0.700194 0.186687,-1.116018s1.154586,-1.04895 1.194796,-1.217962c0.034465,-0.174378 0.485386,-0.906765 0.442304,-1.258203c-0.034465,-0.346073 -0.442304,-0.76458 -0.703666,-0.871889c-0.264234,-0.099261 -0.821422,-0.134137 -1.045446,-0.413141s-0.85876,-0.558009 -1.082784,-0.488258c-0.221152,0.069751 -0.597398,0.13682 -0.896097,-0.040241c-0.298699,-0.169012 -0.781213,-0.383631 -0.9679,-0.520451c-0.189559,-0.13682 -0.672073,-0.241446 -0.896097,-0.241446s-0.186687,-0.142185 -0.522723,0.276322c-0.336036,0.42119 0,0.560692 -0.597398,0.488258c-0.60027,-0.064386 0.071803,-0.101944 0.413583,-0.520451c0.330292,-0.415824 -0.040209,-0.662636 -0.413583,-0.555326c-0.373374,0.104627 -0.112012,0.31388 -0.70941,0.418507c-0.594526,0.101944 -0.594526,-0.246812 -0.221152,-0.31388c0.373374,-0.069751 1.042574,-0.383631 1.042574,-0.520451c0,-0.142185 -0.074675,-0.525816 -0.373374,-0.525816s-0.224024,-0.346073 -0.669201,-0.796773c-0.448048,-0.456065 -1.008109,-0.73507 -1.45903,-0.668001c-0.442304,0.069751 -0.781213,0.174378 -1.005237,-0.203888c-0.224024,-0.386314 -0.485386,-0.456065 -0.637607,-0.662636c-0.146477,-0.209253 -0.522723,0 -0.634735,-0.104627s-0.112012,-0.104627 -0.112012,-0.104627s-0.485386,0.104627 -0.221152,-0.209253c0.25849,-0.31388 0.370502,-0.906765 0.25849,-0.871889c-0.10914,0.034876 -0.298699,0.525816 -0.482514,0.490941c-0.183815,-0.034876 -0.040209,-0.107309 -0.413583,-0.31388c-0.373374,-0.209253 -0.9679,-0.034876 -0.9679,0.139502c0,0.174378 -0.186687,0.31388 -0.186687,0.31388s-0.112012,-0.101944 -0.224024,-0.31388c-0.112012,-0.209253 -0.634735,-0.244129 -0.896097,-0.034876c-0.25849,0.209253 -0.407839,-0.525816 -0.594526,-0.525816s-0.557188,0.174378 -0.746747,0.493623c-0.183815,0.311197 -0.10914,0.76458 -0.264234,0.729704c-0.143605,-0.034876 -0.180943,-0.625078 -0.143605,-0.837014c0.034465,-0.211936 0.445176,-0.558009 0.143605,-0.62776c-0.295827,-0.069751 -0.743875,0.348756 -0.92769,0.383631c-0.186687,0.034876 -0.560061,0.279005 -0.784085,0.560692c-0.221152,0.276322 -0.333164,0.4507 -0.560061,0.555326c-0.221152,0.104627 -0.554316,0 -0.479642,-0.104627c0.071803,-0.104627 -0.637607,-0.485575 -0.74962,-0.348756c-0.114884,0.139502 -0.445176,0.244129 -0.781213,0.386314c-0.336036,0.139502 -0.637607,-0.174378 -0.70941,-0.31388s-0.226896,-0.171695 -0.261362,-0.62776c-0.037337,-0.4507 0.077547,-0.94164 0.186687,-1.217962c0.10914,-0.279005 -0.560061,-0.837014 -0.821422,-0.804821c-0.261362,0.040241 -0.522723,0.281687 -0.781213,0.244129c-0.264234,-0.032193 -0.149349,-0.101944 -0.560061,-0.101944c-0.410711,0 -0.074675,-0.067068 0,-0.383631c0.071803,-0.311197 -0.149349,-0.732387 0.264234,-1.011392c0.407839,-0.279005 0.261362,-0.94164 0,-0.973833c-0.264234,-0.037558 -0.74962,0.104627 -1.082784,0.069751c-0.333164,-0.037558 -0.597398,0.244129 -0.485386,0.555326c0.112012,0.31388 -0.186687,0.523134 -0.298699,0.490941c-0.112012,-0.034876 -0.25849,-0.209253 -0.672073,0.069751c-0.407839,0.276322 -0.557188,0.171695 -0.9679,-0.139502c-0.410711,-0.316563 -0.85876,-0.62776 -0.933434,-1.116018c-0.074675,-0.488258 -0.114884,-0.976516 0.037337,-1.255521c0.146477,-0.279005 0.146477,-0.76458 -0.074675,-0.837014c-0.224024,-0.067068 0.25849,-0.415824 0.519851,-0.485575c0.264234,-0.069751 0.672073,-0.383631 0.746747,-0.523134c0.074675,-0.139502 0.448048,-0.107309 0.855887,-0.107309c0.410711,0 0.485386,0 0.896097,0.209253c0.410711,0.209253 0.485386,-0.104627 0.485386,-0.209253c0,-0.104627 0.149349,-0.31388 0.597398,-0.279005c0.448048,0.034876 1.079912,-0.139502 1.194796,-0.034876s0.333164,0.523134 0.557188,0.383631c0.226896,-0.13682 0.298699,-0.383631 0.376246,0.037558c0.071803,0.415824 0.25849,1.046267 0.597398,1.150894c0.333164,0.104627 0.149349,0.520451 0.482514,0.555326c0.330292,0.034876 0.488258,-0.659953 0.376246,-0.904082c-0.114884,-0.241446 -0.338908,-0.973833 -0.525595,-1.148211c-0.183815,-0.174378 -0.183815,-0.62776 0.183815,-0.767263c0.373374,-0.139502 1.269471,-0.837014 1.52796,-1.043584c0.264234,-0.211936 0.970772,-0.386314 0.74962,-0.665319c-0.224024,-0.279005 -0.298699,-0.4507 -0.298699,-0.662636s0.224024,-0.139502 0.336036,0s0.557188,-0.209253 0.445176,-0.383631c-0.10914,-0.171695 -0.074675,-0.415824 0.186687,-0.383631c0.261362,0.034876 0.333164,-0.174378 0.224024,-0.31388c-0.112012,-0.139502 0.261362,-0.31388 0.522723,-0.244129c0.264234,0.069751 0.933434,-0.034876 1.045446,-0.174378c0.10914,-0.139502 -0.224024,-0.279005 -0.224024,-0.558009c0,-0.279005 0.445176,-0.523134 0.70941,-0.558009c0.261362,-0.034876 0.594526,0 0.634735,-0.104627c0.034465,-0.104627 0.410711,-0.383631 0.445176,-0.139502c0.040209,0.244129 0,0.662636 0.298699,0.662636c0.298699,0 0.666328,-0.31388 0.781213,-0.346073c0.10914,-0.034876 0.821422,-0.174378 0.970772,-0.209253c0.149349,-0.034876 1.042574,-0.104627 0.933434,-0.348756c-0.112012,-0.241446 -0.224024,-0.485575 -0.338908,-0.590202c-0.112012,-0.104627 -0.221152,0.034876 -0.373374,0.209253c-0.146477,0.174378 -0.410711,0.174378 -0.482514,0.034876c-0.074675,-0.13682 0.034465,-0.555326 -0.224024,-0.418507c-0.264234,0.139502 -0.298699,0.279005 -0.450921,0.209253c-0.149349,-0.069751 -0.295827,-0.31388 -0.295827,-0.31388s0.370502,-0.171695 0.10914,-0.488258c-0.25849,-0.31388 -0.634735,-0.244129 -1.005237,-0.067068c-0.373374,0.171695 -0.338908,0.13682 -0.784085,0.241446s-0.672073,0.209253 -0.672073,0.209253s0.60027,-0.346073 0.85876,-0.558009c0.261362,-0.209253 0.60027,-0.31388 0.821422,-0.523134c0.224024,-0.209253 0.81855,0.104627 0.81855,0.104627s0.301571,-0.279005 0.301571,-0.104627s-0.077547,0.62776 0.146477,0.62776c0.226896,0 0.85876,-0.279005 0.603142,-0.351438c-0.267106,-0.069751 0.370502,0 0.628991,-0.174378c0.264234,-0.174378 0.557188,-0.174378 0.70941,-0.241446c0.149349,-0.069751 0.264234,-0.383631 0.522723,-0.383631c0.264234,0 0.373374,0.31388 0,0.523134s-0.410711,0.732387 -0.597398,0.871889c-0.183815,0.139502 -0.074675,0.31388 0.224024,0.279005c0.298699,-0.034876 0.557188,0.034876 0.821422,-0.034876s0.410711,0.069751 0.482514,0.174378c0.074675,0.104627 0.298699,-0.104627 0.298699,-0.104627s0.485386,-0.104627 0.634735,0.069751c0.152222,0.171695 0.264234,-0.104627 0.152222,-0.279005c-0.112012,-0.171695 -0.264234,-0.346073 -0.373374,-0.558009c-0.112012,-0.209253 -0.261362,-0.279005 -0.557188,-0.209253c-0.298699,0.069751 -0.373374,-0.069751 -0.560061,-0.171695c-0.186687,-0.107309 -0.338908,0.139502 -0.186687,-0.107309c0.152222,-0.241446 0.224024,-0.31388 0.336036,-0.523134c0.112012,-0.209253 0.60027,-0.592885 0.112012,-0.694829c-0.485386,-0.107309 -0.637607,-0.174378 -0.70941,-0.383631c-0.074675,-0.209253 -0.634735,-0.592885 -0.781213,-0.592885c-0.152222,0 -0.669201,0 -0.70941,-0.174378c-0.037337,-0.174378 -0.410711,-0.558009 -0.597398,-0.732387c-0.183815,-0.174378 -0.896097,-0.94164 -1.008109,-1.011392c-0.112012,-0.069751 -0.261362,-0.034876 -0.597398,0.383631c-0.333164,0.42119 -0.631863,0.490941 -0.896097,0.386314c-0.261362,-0.104627 -0.298699,-0.069751 -0.554316,-0.348756c-0.267106,-0.279005 0.25849,-0.31388 0.146477,-0.488258c-0.114884,-0.171695 -0.70941,-0.244129 -1.082784,-0.279005c-0.373374,-0.034876 -0.634735,-0.418507 -1.194796,-0.453382c-0.557188,-0.034876 -1.229261,0.069751 -1.415948,0.069751c-0.183815,0 -0.183815,0.244129 -0.25849,0.62776c-0.077547,0.383631 0.25849,0.488258 -0.077547,0.558009c-0.333164,0.069751 -0.485386,0.104627 -0.149349,0.244129c0.336036,0.139502 0.784085,0.697511 0.784085,0.697511s0,0.31388 -0.264234,0.488258c-0.25849,0.174378 -0.522723,0.348756 -0.669201,0.142185c-0.152222,-0.211936 -0.560061,-0.174378 -0.445176,0.034876c0.10914,0.209253 0.333164,0.31388 0.333164,0.523134c0,0.206571 0.336036,0.729704 0.112012,0.904082c-0.224024,0.174378 -0.482514,0.037558 -0.669201,0.069751s-0.376246,-0.279005 -0.224024,-0.348756c0.146477,-0.069751 -0.040209,-0.592885 -0.040209,-0.592885s-0.445176,0.592885 -0.410711,0.279005c0.040209,-0.31388 -0.183815,-0.348756 -0.183815,-0.592885c0,-0.244129 -0.226896,-0.348756 -0.557188,-0.279005c-0.338908,0.069751 -0.746747,-0.107309 -1.384355,-0.211936c-0.631863,-0.104627 -0.893225,-0.171695 -1.415948,-0.418507c-0.522723,-0.244129 -0.70941,-0.069751 -0.970772,-0.034876c-0.261362,0.034876 -0.149349,-0.488258 -0.485386,-0.555326c-0.333164,-0.072434 -0.519851,0.067068 -0.594526,-0.386314c-0.074675,-0.4507 0.112012,-0.558009 0.930562,-1.046267c0.821422,-0.488258 0.70941,-0.697511 1.344145,-0.767263c0.631863,-0.069751 0.933434,0.069751 0.933434,-0.104627s0.149349,-0.871889 0.149349,-0.523134s0.752492,0.370218 0.413583,0.614347c-0.333164,0.244129 -0.149349,0.279005 0.114884,0.279005c0.261362,0 0.743875,-0.244129 0.743875,-0.244129s0.597398,-0.244129 0.746747,-0.034876c0.152222,0.209253 0.152222,0.418507 0.413583,0.418507s0.81855,-0.279005 0.333164,-0.523134c-0.482514,-0.244129 -0.781213,-0.209253 -1.079912,-0.488258s-0.224024,-0.174378 -0.560061,-0.104627c-0.333164,0.069751 -0.333164,-0.104627 -0.448048,-0.104627s-0.298699,0.069751 -0.373374,-0.069751c-0.071803,-0.139502 0.040209,-0.174378 0.416455,-0.174378c0.370502,0 0.81855,0.104627 0.81855,0.104627s0.445176,-0.139502 0.557188,-0.174378c0.112012,-0.034876 0.70941,-0.104627 0.597398,-0.415824c-0.114884,-0.31388 -0.485386,-0.31388 -0.597398,-0.418507s0.224024,-0.241446 0.410711,-0.31388c0.186687,-0.069751 0.70941,0 0.70941,0s0.336036,0.034876 0.336036,-0.104627s-0.080419,-0.31388 0.146477,-0.209253s0,0.418507 0.336036,0.348756c0.333164,-0.069751 0.410711,0 0.594526,0.104627c0.186687,0.104627 -0.037337,0.523134 -0.221152,0.592885c-0.186687,0.067068 -0.485386,0.206571 -0.074675,0.241446c0.413583,0.037558 0.706538,0.037558 0.706538,0.037558s0.264234,-0.244129 0.376246,-0.453382c0.10914,-0.209253 0.298699,-0.069751 0.445176,0c0.149349,0.067068 0.70941,0.174378 0.186687,0.31388c-0.525595,0.139502 -0.634735,0.31388 -0.746747,0.488258c-0.10914,0.174378 -0.152222,0.279005 -0.634735,0.174378c-0.488258,-0.104627 -0.746747,-0.069751 -0.85876,0.104627c-0.112012,0.171695 -0.037337,0.732387 0.152222,0.662636c0.180943,-0.069751 0.370502,-0.069751 0.594526,-0.139502c0.224024,-0.069751 1.120121,0.069751 1.341273,0.034876c0.224024,-0.034876 0.60027,0.348756 0.712282,0.279005c0.112012,-0.069751 0.336036,0.139502 0.557188,0.279005c0.224024,0.139502 0.149349,-0.31388 0.557188,-0.034876c0.413583,0.279005 0.186687,0.279005 0.413583,0.279005c0.21828,0 0.706538,0.034876 0.706538,0.034876s0.040209,-0.346073 0.413583,-0.279005c0.373374,0.069751 0.703666,0.453382 0.666328,0.171695c-0.034465,-0.276322 0.037337,-0.485575 -0.25849,-0.694829c-0.298699,-0.209253 -0.781213,-0.348756 -0.85876,-0.453382c-0.074675,-0.104627 -0.149349,-0.244129 -0.037337,-0.31388c0.112012,-0.067068 0.634735,0.034876 0.930562,0.211936c0.298699,0.174378 0.560061,0.348756 0.784085,0.209253c0.221152,-0.139502 0.488258,-0.209253 0.597398,-0.31388c0.10914,-0.107309 0.373374,-0.418507 0.373374,-0.418507s-1.122993,-0.13682 -1.266599,-0.31388c-0.152222,-0.174378 -0.674945,-0.418507 -0.824294,-0.418507s-0.557188,0.244129 -0.706538,-0.104627s-0.149349,-0.767263 -0.301571,-0.802138c-0.143605,-0.034876 -1.714647,-0.244129 -1.935799,-0.348756c-0.224024,-0.104627 -1.120121,-0.348756 -1.456158,-0.523134s-0.821422,-0.418507 -1.117249,-0.418507c-0.298699,0 -1.530832,0.139502 -1.754857,0.104627c-0.224024,-0.034876 -0.896097,0.069751 -1.157459,0.104627c-0.261362,0.034876 0.336036,0.488258 -0.221152,0.592885c-0.560061,0.104627 -0.485386,0.174378 -0.373374,-0.348756c0.10914,-0.523134 -0.376246,-0.662636 -0.85876,-0.453382c-0.485386,0.209253 -1.269471,0.348756 -1.082784,0.592885c0.186687,0.244129 -0.034465,0.42119 0.336036,0.662636c0.373374,0.244129 0.525595,0.31388 1.005237,0.279005c0.488258,-0.034876 0.973644,0.067068 0.973644,0.067068s0,0.42119 -0.183815,0.488258c-0.186687,0.069751 -0.485386,0.069751 -0.562933,0.279005c-0.071803,0.209253 -0.445176,0.31388 -0.445176,0.209253s0.186687,-0.453382 -0.074675,-0.62776c-0.25849,-0.174378 -0.336036,-0.209253 -0.634735,-0.034876c-0.298699,0.174378 -0.333164,0.244129 -0.485386,-0.034876c-0.149349,-0.279005 -0.597398,-0.523134 -0.597398,-0.523134s-0.298699,-0.346073 -0.522723,-0.520451c-0.221152,-0.174378 -0.631863,-0.139502 -0.672073,0.034876c-0.037337,0.171695 0.074675,0.346073 0.224024,0.662636c0.149349,0.31388 0.298699,0.904082 0.037337,0.94164c-0.261362,0.034876 -0.298699,0.069751 -0.560061,0.139502c-0.261362,0.069751 -0.373374,-0.104627 -0.373374,-0.383631s-0.114884,-0.523134 -0.037337,-0.62776c0.074675,-0.104627 -0.298699,0.072434 -0.672073,0c-0.373374,-0.067068 -0.669201,0.139502 -0.298699,0.246812c0.373374,0.104627 0.450921,0.520451 0.112012,0.625078c-0.336036,0.104627 -1.605507,0 -2.016218,0s-1.005237,0.104627 -1.120121,-0.104627c-0.112012,-0.209253 0.338908,-0.346073 0.597398,-0.346073c0.261362,0 1.042574,0.032193 1.341273,-0.348756c0.298699,-0.383631 -0.373374,-0.453382 -0.669201,-0.453382c-0.298699,0 -0.525595,-0.104627 -0.85876,-0.415824c-0.338908,-0.31388 0.224024,-0.523134 0.149349,-0.662636c-0.074675,-0.139502 -0.448048,-0.037558 -0.781213,-0.037558c-0.336036,0 -0.85876,-0.241446 -0.85876,0.037558c0,0.279005 0.410711,1.07846 0.149349,0.904082c-0.261362,-0.171695 -0.224024,-0.418507 -0.410711,-0.62776c-0.186687,-0.209253 -0.482514,-0.174378 -0.85876,-0.139502c-0.370502,0.034876 -1.005237,0.139502 -1.191924,0.104627c-0.183815,-0.034876 -0.037337,-0.034876 -0.448048,-0.209253c-0.407839,-0.174378 -0.597398,-0.139502 -0.896097,-0.31388c-0.295827,-0.179743 -0.034465,-0.246812 -0.557188,-0.281687c-0.519851,-0.034876 -0.482514,0.241446 -1.005237,0.174378c-0.522723,-0.069751 -0.672073,0.034876 -1.194796,0c-0.522723,-0.034876 -0.781213,-0.069751 -0.85876,0.174378c-0.071803,0.244129 -0.224024,0.662636 -0.448048,0.662636c-0.221152,0 -0.485386,0.244129 0.224024,0.279005c0.70941,0.034876 0.301571,0.346073 0.933434,0.31388c0.634735,-0.034876 1.194796,-0.034876 1.344145,-0.31388c0.149349,-0.279005 0.261362,-0.279005 0.336036,-0.174378c0.071803,0.104627 0.631863,0.729704 0.631863,0.729704s0.376246,0.279005 0.525595,0.348756c0.146477,0.069751 -0.149349,0.383631 -0.448048,0.209253c-0.298699,-0.174378 -0.85876,-0.13682 -1.082784,-0.311197c-0.224024,-0.174378 -1.232133,-0.174378 -1.493495,-0.139502c-0.25849,0.034876 -0.70941,-0.104627 -0.85876,-0.104627c-0.146477,0 -0.634735,0.348756 -0.634735,0.348756s-0.186687,-0.281687 -0.295827,-0.42119c-0.112012,-0.139502 -0.298699,0.139502 -0.448048,0.174378c-0.149349,0.034876 -0.597398,-0.279005 -1.045446,-0.139502c-0.448048,0.139502 -0.298699,0.279005 -0.933434,0.244129s-0.781213,-0.139502 -1.005237,-0.104627c-0.226896,0.034876 -0.226896,0.034876 -0.226896,0.034876s0.037337,0.139502 -0.221152,0.279005c-0.261362,0.139502 -0.450921,0.31388 -0.637607,0.104627c-0.183815,-0.209253 -0.295827,-0.209253 -0.407839,-0.244129c-0.114884,-0.034876 -0.338908,-0.209253 -0.821422,-0.107309c-0.485386,0.107309 -1.232133,-0.13682 -1.378611,-0.13682c-0.114884,0 -0.898969,-0.040241 -1.410204,-0.08853c6.057271,-6.148832 14.716669,-10.033434 24.349711,-10.033434c6.111841,0 11.824459,1.580132 16.744376,4.287013c-0.336036,0.193157 -0.916202,0.160964 -1.114377,0.061703c-0.224024,-0.115358 -0.453793,-0.209253 -1.36425,-0.163647c-0.910457,0.048289 -1.90995,0.327294 -1.708903,0.606298c0.206792,0.279005 -0.407839,0.442652 -0.565805,0.303149c-0.157966,-0.139502 -0.887481,0.160964 -0.841527,0.442652c0.045954,0.279005 -0.112012,0.603616 -0.502618,0.533865c-0.384862,-0.072434 -0.657712,0.160964 -0.680689,0.39168c-0.020105,0.233398 -0.887481,0.394362 -0.953539,0.394362c-0.068931,0 -1.183308,-0.021462 -0.775469,0.25486c0.278594,0.185109 0.430816,0.072434 0.775469,0.139502c0.341781,0.069751 0.614631,0.582154 0.795573,0.651905c0.178071,0.069751 0.430816,0 0.542828,-0.139502c0.114884,-0.139502 0.27285,-0.62776 0.27285,-0.62776s0,0.464113 0.278594,0.558009c0.27285,0.093896 0.950667,-0.069751 1.134482,-0.045607c0.183815,0.021462 1.25511,0.163647 1.545193,0.300466c0.298699,0.139502 1.02247,0.233398 1.229261,0.533865c0.203919,0.303149 0.229768,1.349416 0.341781,1.464774c0.114884,0.115358 0.499746,-0.3729 0.588782,-0.488258c0.089035,-0.11804 0.568677,-0.048289 0.729515,0.112675c0.160838,0.163647 0.522723,0.558009 0.502618,0.721656c-0.028721,0.16633 -0.094779,0.418507 -0.229768,0.327294c-0.137861,-0.091213 -0.364757,-0.067068 -0.275722,-0.25486c0.091907,-0.185109 0.137861,-0.582154 -0.043082,-0.582154c-0.183815,0 -0.341781,0 -0.341781,0s-0.344653,-0.093896 -0.571549,0.25486s-0.043082,0.697511 0.114884,0.697511s0.528467,0 0.528467,0.091213c0,0.093896 -0.390606,0.3729 -0.36763,0.536547c0.025849,0.163647 0.315932,0.718973 0.413583,0.837014c0.089035,0.115358 0.565805,0.230715 0.700794,0.257543c0.140733,0.021462 -0.318804,0.045607 -0.201047,0.206571c0.114884,0.163647 0.292955,0.558009 0.542828,0.651905c0.249873,0.093896 0.956411,0.50972 1.042574,0.697511c0.091907,0.185109 0.637607,-0.139502 0.752492,-0.163647c0.114884,-0.021462 0.091907,0.488258 0.410711,0.512403c0.315932,0.021462 0.430816,-0.048289 0.703666,-0.257543s0.206792,-0.488258 0.226896,-0.697511c0.025849,-0.209253 0,-0.370218 0.298699,-0.303149c0.298699,0.069751 0.453793,-0.048289 0.430816,-0.279005c-0.022977,-0.233398 -0.27285,-0.512403 0.201047,-0.582154c0.479642,-0.069751 0.729515,-0.370218 1.025342,-0.370218c0.295827,0 1.117249,0.115358 1.203412,0c0.091907,-0.115358 0.479642,-0.651905 0.729515,-0.673367c0.192431,-0.018779 0.643352,-0.056337 1.105761,-0.112675c4.543671,5.056958 7.355462,11.492843 7.677138,18.524295c-0.338908,0.426555 -0.034465,0.818235 0.060314,1.094556c0.002872,0.080482 0.014361,0.155599 0.014361,0.236081c0,0.364852 -0.045954,0.721656 -0.060314,1.083825c-0.002872,0.005365 -0.002872,0.010731 -0.008616,0.016096zm-27.905378,-11.605518c-0.183815,0.034876 -0.485386,-0.139502 -0.485386,-0.383631s-0.261362,0.453382 -0.114884,0.662636c0.152222,0.209253 -0.298699,0.453382 -0.445176,0.453382s-0.261362,-0.311197 -0.224024,-0.625078c0.040209,-0.31388 -0.221152,-0.592885 -0.634735,-0.558009c-0.410711,0.037558 -0.597398,0.348756 -0.743875,0.453382c-0.152222,0.104627 -0.152222,0.694829 -0.114884,0.837014s0.037337,0.630443 -0.333164,0.592885c-0.338908,-0.034876 -0.264234,-0.625078 -0.226896,-0.837014c0.040209,-0.209253 -0.112012,-0.732387 0.040209,-1.008709c0.152222,-0.279005 0.594526,-0.383631 0.896097,-0.418507s0.930562,0.174378 1.042574,0.139502c0.114884,-0.037558 0.637607,-0.037558 0.896097,0c0.261362,0.02951 0.631863,0.65727 0.448048,0.692146zm0.669201,0.104627c0.114884,0.069751 0.893225,-0.104627 1.045446,0.069751c0.146477,0.174378 -0.155094,0.209253 -0.525595,0.348756c-0.370502,0.139502 -0.485386,0.104627 -0.634735,0.279005s-0.634735,0.241446 -0.85876,0.4507c-0.224024,0.211936 -0.623247,0.335342 -0.706538,0.174378c-0.114884,-0.209253 0.037337,-0.104627 0.071803,-0.209253c0.037337,-0.104627 0.703666,-0.346073 0.703666,-0.346073s0.792701,-0.837014 0.904713,-0.767263zm-2.984118,-1.220645c-0.10914,0.034876 -0.522723,-0.069751 -0.861632,-0.069751c-0.333164,0 -0.261362,-0.209253 -0.410711,-0.171695c-0.146477,0.034876 -0.482514,0.104627 -0.70941,0.209253c-0.224024,0.104627 -0.597398,0.080482 -0.597398,-0.107309c0,-0.279005 0.149349,-0.209253 0.634735,-0.383631c0.485386,-0.174378 1.010981,-0.662636 1.232133,-0.453382c0.224024,0.209253 0.634735,0.453382 0.896097,0.488258c0.264234,0.037558 -0.074675,0.453382 -0.183815,0.488258zm-3.817028,-10.81411c-0.226896,0.069751 -0.996621,0.3729 -0.921946,0.533865c0.028721,0.061703 0.224024,0.185109 0.5457,0.139502c0.324548,-0.048289 0.792701,-0.093896 1.019597,-0.115358c0.224024,-0.024145 0.27285,-0.3729 0.025849,-0.394362c-0.249873,-0.024145 -0.448048,-0.233398 -0.669201,-0.163647zm-2.760093,0.279005c-0.175198,0.069751 -0.697922,-0.115358 -0.970772,0.048289c-0.175198,0.101944 -0.074675,0.439969 0.201047,0.461431c0.27285,0.024145 0.743875,-0.160964 0.792701,-0.021462c0.051698,0.139502 0.224024,0.767263 0.672073,0.558009c0.448048,-0.209253 0.4222,-0.394362 0.5457,-0.418507c0.123501,-0.024145 -0.022977,-0.533865 -0.224024,-0.651905c-0.198175,-0.115358 -0.844399,-0.045607 -1.016725,0.024145zm-0.898969,-1.974494c0.048826,0.11804 -0.022977,0.209253 0.324548,0.25486c0.347525,0.048289 0.496874,0.093896 0.697922,0.093896c0.198175,0 0.120628,-0.303149 -0.051698,-0.50972c-0.175198,-0.209253 -0.123501,-0.185109 -0.571549,-0.303149c-0.448048,-0.115358 -0.896097,-0.115358 -1.194796,-0.093896c-0.298699,0.024145 -0.623247,-0.045607 -0.697922,0.279005c-0.037337,0.16633 0.201047,0.300466 0.499746,0.300466s0.944923,-0.13682 0.993749,-0.021462zm0.649096,1.276983c0.123501,0.25486 0.123501,0.13682 0.473897,0.163647c0.344653,0.024145 0.617503,-0.324611 0.643352,-0.439969c0.025849,-0.11804 -0.175198,-0.348756 -0.646224,-0.303149c-0.473897,0.045607 -1.915694,-0.069751 -2.11387,0.091213c-0.189559,0.155599 0,0.625078 -0.074675,0.673367c-0.074675,0.045607 0.025849,0.25486 0.221152,0.209253c0.198175,-0.045607 0.298699,-0.488258 0.450921,-0.488258c0.149349,0.002683 0.921946,-0.160964 1.045446,0.093896zm-4.67866,-0.952371c0.149349,0.115358 0.525595,0.021462 0.496874,-0.093896c-0.022977,-0.115358 0.152222,-0.582154 -0.146477,-0.603616c-0.298699,-0.021462 -0.718026,0.257543 -1.168947,0.397045c-0.290083,0.08853 -0.224024,0.348756 -0.025849,0.348756s0.697922,-0.163647 0.844399,-0.048289zm2.119614,0.418507c-0.249873,0.115358 -0.32742,0.185109 -0.548572,0.139502c-0.224024,-0.045607 -0.224024,-0.418507 -0.623247,-0.348756c-0.396351,0.069751 -0.471025,0.279005 -0.594526,0.3729s-0.399223,0.163647 -0.496874,0.115358c-0.097652,-0.045607 -0.672073,-0.346073 -0.672073,-0.346073s-1.194796,-0.048289 -1.243622,-0.187792c-0.048826,-0.139502 -0.247001,-0.370218 -0.795573,-0.324611s-1.493495,0.348756 -1.642844,0.348756c-0.149349,0 0.178071,0.279005 -0.025849,0.279005c-0.198175,0 -0.445176,-0.021462 -0.519851,0.185109c-0.051698,0.142185 0.224024,0.139502 0.542828,0.139502c0.321676,0 0.847271,0 0.996621,-0.069751c0.149349,-0.069751 0.896097,-0.233398 0.870248,-0.024145c-0.025849,0.211936 0.298699,0.533865 0.471025,0.488258c0.175198,-0.045607 0.525595,-0.348756 0.697922,-0.230715c0.175198,0.115358 0.201047,0.39168 0.373374,0.464113c0.175198,0.067068 0.649096,0.067068 0.87312,0c0.221152,-0.072434 0.844399,-0.072434 1.117249,-0.024145c0.27285,0.048289 1.071295,0.185109 1.14597,0.048289c0.074675,-0.142185 0.298699,-0.163647 0.321676,-0.303149s0.146477,-0.579471 0.146477,-0.579471s-0.146477,-0.257543 -0.393478,-0.142185zm12.594183,24.02927c-0.341781,0.056337 -0.261362,0.67605 0.149349,0.563375c0.410711,-0.112675 0.189559,-0.622395 -0.149349,-0.563375zm3.245479,-0.831648c-0.298699,-0.069751 -0.634735,0 -0.85876,0.034876c-0.224024,0.034876 -0.85876,0.558009 -0.85876,0.558009s0.410711,0.069751 0.669201,0.069751c0.264234,0 0.413583,0.13682 0.634735,0.241446c0.224024,0.107309 0.634735,-0.139502 0.781213,-0.139502c0.152222,0 0.338908,0.418507 0.376246,-0.034876c0.040209,-0.453382 -0.445176,-0.659953 -0.743875,-0.729704zm-10.39415,-22.594006c-0.123501,-0.279005 -0.743875,-0.3729 -0.87312,-0.093896c-0.10914,0.244129 0.996621,0.3729 0.87312,0.093896zm7.114206,20.885103c0.410711,-0.069751 0.183815,-0.386314 -0.152222,-0.348756c-0.338908,0.034876 -0.261362,0.418507 0.152222,0.348756zm4.960126,2.154237c-0.341781,0.05902 -0.264234,0.678732 0.146477,0.566057c0.413583,-0.112675 0.189559,-0.622395 -0.146477,-0.566057zm-4.517822,-1.038219c-0.25849,0.034876 -0.81855,-0.241446 -1.117249,-0.488258c-0.298699,-0.244129 -0.85876,-0.244129 -1.082784,-0.244129c-0.221152,0 -1.120121,0.244129 -1.120121,0.244129c-0.037337,0.348756 0.336036,0.244129 0.784085,0.244129s1.232133,-0.069751 1.375739,0.104627c0.152222,0.171695 0.821422,0.4507 1.010981,0.592885c0.183815,0.139502 0.781213,0.174378 0.81855,0.034876s-0.407839,-0.523134 -0.669201,-0.488258zm-4.448892,-22.255981c-0.373374,-0.024145 -0.847271,-0.024145 -1.14597,0c-0.298699,0.021462 -0.522723,-0.185109 -0.746747,-0.303149c-0.221152,-0.115358 -0.720899,-0.488258 -1.016725,-0.533865c-0.298699,-0.045607 -0.247001,-0.045607 -0.870248,-0.185109c-0.315932,-0.072434 -0.844399,-0.163647 -0.844399,-0.230715c0,-0.069751 -0.149349,0.324611 0.123501,0.442652c0.27285,0.115358 0.720899,0.324611 1.042574,0.439969c0.32742,0.115358 0.944923,0.139502 1.14597,0.3729c0.198175,0.230715 0.870248,0.418507 0.870248,0.418507l0.795573,0.069751c0,0 0.548572,-0.115358 1.120121,-0.069751c0.571549,0.045607 1.415948,0.115358 1.892718,0.093896c0.468153,-0.021462 0.542828,-0.163647 0.597398,-0.25486c0.045954,-0.093896 -0.87312,-0.279005 -1.100016,-0.25486c-0.21828,0.016096 -1.493495,0.016096 -1.863997,-0.005365zm1.390099,5.344011c-0.097652,0.104627 0.450921,0.25486 0.548572,0.115358c0.097652,-0.13682 -0.292955,-0.370218 -0.548572,-0.115358zm1.671565,0.485575c0.247001,-0.093896 0.123501,-0.3729 -0.226896,-0.279005c-0.396351,0.107309 -0.025849,0.3729 0.226896,0.279005z" stroke-opacity="null" stroke-width="1.5" fill="#ec4d37"/>
  <text stroke="#000" transform="matrix(5.42767770108725,0,0,4.272456710905543,-681.5395791306297,-615.3382764667759) " xml:space="preserve" text-anchor="start" font-family="'Shadows Into Light', serif" font-size="10" id="svg_7" y="180.72762" x="126.754687" stroke-opacity="null" stroke-width="0" fill="#ec4d37">Sharieff</text>
  <text stroke="#000" transform="matrix(20.185972213745117,0,0,5.434471607208252,-6857.486162334681,-809.1524910777807) " xml:space="preserve" text-anchor="start" font-family="Helvetica, Arial, sans-serif" font-size="10" id="svg_8" y="191.532861" x="357.431302" stroke-opacity="null" stroke-width="0" fill="#ffffff"/>
  <text font-weight="normal" stroke="#000" transform="matrix(6.5126301458700055,0,0,4.578084708172254,-1799.225218726799,-1192.351124246403) " xml:space="preserve" text-anchor="start" font-family="Arvo, sans-serif" font-size="10" id="svg_9" y="295.117759" x="325.856486" stroke-opacity="null" stroke-width="0" fill="#ec4d37">Design</text>
 </g>
</svg>